<?xml version="1.0" encoding="iso-8859-1"?>
<!-- Uploaded to: SVG Repo, www.svgrepo.com, Generator: SVG Repo Mixer Tools -->
<!DOCTYPE svg PUBLIC "-//W3C//DTD SVG 1.1//EN" "http://www.w3.org/Graphics/SVG/1.1/DTD/svg11.dtd">
<svg fill= "currentColor" version="1.1" id="Capa_1" xmlns="http://www.w3.org/2000/svg" xmlns:xlink="http://www.w3.org/1999/xlink" 
	 width="800px" height="800px" viewBox="0 0 1000 1000"
	 xml:space="preserve">
<g>
	<g transform="matrix(0.4,0,0,0.4,124.9,101.7)" id="iconos_7_">
		<polygon points="223.1,98.7 186.7,155.1 162.5,145.4 78.5,298.8 177.2,298.8 220.5,241.4 257.7,241.4 297.4,298.8 330.9,298.8 254.3,107.1"/>
		<polygon points="252.7,251 225.3,251 189.2,298.8 285.8,298.8"/>
		<path d="M -172 207 l -28.4 91.8 h 39.4 l 31.6 -91.4 l 9 -71.1 h 30.1 l 27 73.7 l -16.5 88.8 h 38.3 l 18.8 -100.6 l -18.8 -53 l -6.8 -24 l 103.6 58.7 l -19.4 33.7 l 45.1 26 l 47.7 -82.9 l -45.1 -26 l -18.8 32.6 L -55.9 94.9 l -6.5 -22.8 l 11.8 -47.9 l 5.1 43.8 l 8.2 21.3 l 32.3 18.9 l -13.4 -47.6 l -10.4 -91.5 l -33.5 -1.4 l -5.9 -16.2 c 22.4 -4.6 39.3 -23.9 40.5 -47.4 l -100.8 -13.4 c -0.7 3.4 -1.2 7 -1.2 10.7 c 0 17.7 9 33.3 22.6 42.4 l -0.9 -0.1 l -20.2 17 l -25.8 -2.2 L -210.4 8.1 v 75.5 l 45.1 11.1 L -172 207 z M -181.7 56.2 v -22.5 l 19.1 -17.5 v 44.3 L -181.7 56.2 z"/>
		<path d="M -28 -105.6 l 15.3 2 c 2 -45.5 -17.7 -75.3 -53.5 -80 c -2.9 -0.4 -5.8 -0.6 -8.7 -0.6 c -31.7 0 -54.8 23.2 -63.8 63.9 l 13.3 1.8 L -28 -105.6 z"/>
	</g>
</g>
</svg>