<?xml version="1.0" ?>
<svg xmlns="http://www.w3.org/2000/svg" xmlns:xlink="http://www.w3.org/1999/xlink" version="1" viewBox="0 0 48 48" enable-background="new 0 0 48 48" xml:space="preserve">
<g id="Layer_1"/><g id="_x38__x5F_Handshake" fill="white">
<path transform="matrix(0.9,0,0,0.9,2.3,2.6)" d="M 8.2 20.4 l 9.7 -9.7 c 1.2 -1.2 1.2 -3.1 0 -4.2 l -1.4 -1.4 c -1.2 -1.2 -3.1 -1.2 -4.2 0 l -9.7 9.7 c -1.2 1.2 -1.2 3.1 0 4.2 l 1.4 1.4 c 0.6 0.6 1.4 0.9 2.1 0.9 C 6.9 21.2 7.6 21 8.2 20.4 z M 5.4 19 l -1.4 -1.4 c -0.4 -0.4 -0.4 -1 0 -1.4 l 9.7 -9.7 c 0.2 -0.2 0.5 -0.3 0.7 -0.3 c 0.3 0 0.5 0.1 0.7 0.3 l 1.4 1.4 c 0.4 0.4 0.4 1 0 1.4 l -9.7 9.7 C 6.4 19.3 5.8 19.3 5.4 19 z M 35.8 28.1 c 0.6 0.6 0.9 1.3 0.9 2.1 c 0 0.8 -0.3 1.6 -0.9 2.1 c -0.5 0.5 -1.2 0.8 -2 0.9 c 0 0.7 -0.3 1.4 -0.9 2 c -0.6 0.6 -1.3 0.9 -2.1 0.9 c -0.2 0 -0.4 0 -0.7 -0.1 c -0.1 0.5 -0.4 1 -0.8 1.3 c -0.6 0.6 -1.4 0.9 -2.1 0.9 c -0.2 0 -0.4 0 -0.7 -0.1 c -0.1 0.5 -0.4 0.9 -0.8 1.3 c -0.6 0.6 -1.4 0.9 -2.1 0.9 c -0.8 0 -1.5 -0.3 -2.1 -0.9 c -0.4 -0.4 -0.4 -1 0 -1.4 c 0.4 -0.4 1 -0.4 1.4 0 c 0.4 0.4 1 0.4 1.4 0 c 0.4 -0.4 0.4 -1 0 -1.4 l -1.4 -1.4 c -0.4 -0.4 -0.4 -1 0 -1.4 s 1 -0.4 1.4 0 l 1.4 1.4 l 0.7 0.7 c 0.4 0.4 1 0.4 1.4 0 c 0.2 -0.2 0.3 -0.4 0.3 -0.7 c 0 -0.3 -0.1 -0.5 -0.3 -0.7 l -2.1 -2.1 l -0.8 -0.8 c -0.4 -0.4 -0.4 -1 0 -1.4 s 1 -0.4 1.4 0 l 0.8 0.8 l 2.1 2.1 l 0.7 0.7 c 0.4 0.4 1 0.4 1.4 0 c 0.4 -0.4 0.4 -1 0 -1.4 l -2.8 -2.8 l -1.8 -1.8 c -0.4 -0.4 -0.4 -1 0 -1.4 s 1 -0.4 1.4 0 l 1.8 1.8 l 2.8 2.8 c 0.4 0.4 1 0.4 1.4 0 c 0.2 -0.2 0.3 -0.4 0.3 -0.7 c 0 -0.3 -0.1 -0.5 -0.3 -0.7 l -8.3 -7.9 c -0.4 -0.4 -0.4 -1 0 -1.4 s 1 -0.4 1.4 0 L 35.8 28.1 z M 19 31.6 c 0 -0.2 0.1 -0.4 0.1 -0.7 c 0 -0.8 -0.3 -1.6 -0.9 -2.1 c -0.4 -0.4 -0.9 -0.6 -1.4 -0.8 c 0.2 -0.8 0.1 -1.7 -0.4 -2.4 c -0.5 -0.7 -1.3 -1.2 -2.2 -1.2 c 0 0 -0.1 0 -0.1 0 c 0 -0.6 -0.2 -1.1 -0.5 -1.6 c -0.5 -0.7 -1.3 -1.2 -2.2 -1.2 c -0.9 -0.1 -1.7 0.2 -2.4 0.9 l -2.1 2.1 c -0.6 0.6 -0.9 1.3 -0.9 2.1 c 0 0.8 0.3 1.6 0.9 2.1 c 0.5 0.5 1.2 0.8 2 0.9 c 0 0.7 0.3 1.4 0.9 2 c 0.5 0.5 1.3 0.8 2 0.9 c 0 0.7 0.3 1.4 0.9 2 c 0.5 0.5 1.2 0.8 2 0.9 c 0 0.7 0.3 1.4 0.9 2 c 0.6 0.6 1.4 0.9 2.1 0.9 c 0.8 0 1.5 -0.3 2.1 -0.9 l 0.6 -0.6 c 1.1 -1.1 1.2 -2.8 0.4 -3.9 C 20.2 32.2 19.6 31.8 19 31.6 z M 8 26.7 c 0 -0.3 0.1 -0.5 0.3 -0.7 L 10.4 23.9 c 0.2 -0.2 0.4 -0.3 0.7 -0.3 c 0 0 0.1 0 0.1 0 c 0.3 0 0.6 0.2 0.7 0.4 c 0.3 0.4 0.2 1 -0.2 1.4 l -2 2 c -0.4 0.4 -1 0.4 -1.4 0 C 8.1 27.2 8 27 8 26.7 z M 11.1 28.8 l 2 -2 c 0 0 0 0 0 0 l 0.1 -0.1 c 0.2 -0.2 0.4 -0.3 0.7 -0.3 c 0 0 0.1 0 0.1 0 c 0.3 0 0.6 0.2 0.7 0.4 c 0.3 0.4 0.2 1 -0.2 1.4 l -2 2 c -0.4 0.4 -1 0.4 -1.4 0 C 10.7 29.8 10.7 29.2 11.1 28.8 z M 13.9 31.6 l 1.4 -1.4 c 0.2 -0.2 0.5 -0.3 0.7 -0.3 c 0.3 0 0.5 0.1 0.7 0.3 c 0.2 0.2 0.3 0.4 0.3 0.7 c 0 0.3 -0.1 0.5 -0.3 0.7 l -1.4 1.4 c -0.4 0.4 -1 0.4 -1.4 0 C 13.5 32.7 13.5 32 13.9 31.6 z M 18.8 35.2 l -0.6 0.6 c -0.4 0.4 -1 0.4 -1.4 0 c -0.2 -0.2 -0.3 -0.4 -0.3 -0.7 c 0 -0.3 0.1 -0.5 0.3 -0.7 l 0.7 -0.7 c 0.2 -0.2 0.4 -0.3 0.7 -0.3 c 0 0 0.1 0 0.1 0 c 0.3 0 0.6 0.2 0.7 0.4 C 19.3 34.3 19.2 34.9 18.8 35.2 z M 41.2 14.7 l -9.2 -9.2 c -1.1 -1.1 -3.1 -1.1 -4.2 0 l -1.4 1.4 c -0.8 0.8 -1 1.9 -0.7 3 H 22.7 c -0.8 0 -1.5 0.3 -2.1 0.9 l -4.9 4.9 c -0.6 0.6 -0.9 1.4 -0.9 2.2 c 0 0.8 0.3 1.6 0.9 2.2 c 0.6 0.6 1.4 0.9 2.2 0.9 s 1.6 -0.3 2.2 -0.9 l 1.9 -1.9 C 22.2 18 22.4 17.9 22.7 17.9 H 26.9 c 0.6 0 1 -0.4 1 -1 s -0.4 -1 -1 -1 h -4.2 c -0.8 0 -1.6 0.3 -2.1 0.9 l -1.9 1.9 c -0.4 0.4 -1.1 0.4 -1.6 0 c -0.2 -0.2 -0.3 -0.5 -0.3 -0.8 c 0 -0.3 0.1 -0.6 0.3 -0.8 l 4.9 -4.9 c 0.2 -0.2 0.4 -0.3 0.7 -0.3 h 4.3 l 7.8 7.8 l -1 3.9 c -0.1 0.5 0.2 1.1 0.7 1.2 C 34.7 24.8 34.8 24.9 34.9 24.9 c 0.4 0 0.9 -0.3 1 -0.8 l 0.8 -3 c 0.3 0.1 0.7 0.2 1 0.2 c 0.8 0 1.6 -0.3 2.1 -0.9 l 1.4 -1.4 C 42.4 17.8 42.4 15.9 41.2 14.7 z M 39.8 17.5 l -1.4 1.4 c -0.4 0.4 -1 0.4 -1.4 0 l -8.8 -8.8 c 0 0 0 0 0 0 l -0.4 -0.4 c -0.4 -0.4 -0.4 -1 0 -1.4 l 1.4 -1.4 c 0.2 -0.2 0.4 -0.3 0.7 -0.3 c 0.3 0 0.5 0.1 0.7 0.3 l 9.2 9.2 C 40.2 16.5 40.2 17.2 39.8 17.5 z"/>
</g>
</svg>