<?xml version="1.0" encoding="iso-8859-1"?>
<!-- Uploaded to: SVG Repo, www.svgrepo.com, Generator: SVG Repo Mixer Tools -->
<!DOCTYPE svg PUBLIC "-//W3C//DTD SVG 1.1//EN" "http://www.w3.org/Graphics/SVG/1.1/DTD/svg11.dtd">
<svg fill="currentColor" version="1.1" id="Capa_1" xmlns="http://www.w3.org/2000/svg" xmlns:xlink="http://www.w3.org/1999/xlink" 
	 width="80" height="80" viewBox="0 0 468.613 468.614"
	 xml:space="preserve">
<circle cx="50%" cy="50%" r="50%" fill="lightgrey"/>
<g>
	<g transform="matrix(0.9,0,0,0.6,-756,51.4)">
		<path d="M 1029.9 256.6 h -3.5 c 10.6 -12.4 17.1 -28.4 17.1 -45.9 C 1043.5 171.8 1011.8 140.1 972.9 140.1 C 934 140.1 902.3 171.8 902.3 210.7 c 0 17.5 6.5 33.6 17.1 45.9 h -3.5 c -19.7 0 -35.6 16 -35.6 35.6 v 117.1 c 0 19.6 16 35.6 35.6 35.6 h 1.4 v 128.1 c 0 20.3 10.7 35.6 24.9 35.6 h 61.5 c 14.2 0 24.9 -15.3 24.9 -35.6 V 445 h 1.4 c 19.6 0 35.6 -16 35.6 -35.6 v -117.1 C 1065.6 272.6 1049.6 256.6 1029.9 256.6 z"/>
	</g>
</g>
<g transform="matrix(0.9,0,0,0.8,-764.9,-4.3)">
	<path transform="matrix(1,0,0,0.7,1.1,46.4)" d="M 1307.1 303.2 h -3.5 c 10.6 -12.4 17.1 -28.4 17.1 -45.9 C 1320.7 218.4 1289.1 186.7 1250.1 186.7 c -38.9 0 -70.6 31.7 -70.6 70.6 c 0 17.5 6.5 33.6 17.1 45.9 h -3.5 c -19.7 0 -35.6 16 -35.6 35.6 v 117.1 c 0 19.6 16 35.6 35.6 35.6 h 1.4 v 128.1 c 0 20.3 10.7 35.6 24.9 35.6 h 61.5 c 14.2 0 24.9 -15.3 24.9 -35.6 V 491.6 h 1.4 c 19.6 0 35.6 -16 35.6 -35.6 v -117.1 C 1342.8 319.2 1326.8 303.2 1307.1 303.2 z"/>
</g>
<g>
	<text transform="matrix(3.6,0,0,2.7,-87,-17.5)" x="19.9%" y="9.7%" text-anchor="middle" fill="currentColor" font-size="48" font-family="Arial" dy=".3em">X</text>
</g>
</svg>