<?xml version="1.0" encoding="iso-8859-1"?>
<!-- Uploaded to: SVG Repo, www.svgrepo.com, Generator: SVG Repo Mixer Tools -->
<!DOCTYPE svg PUBLIC "-//W3C//DTD SVG 1.1//EN" "http://www.w3.org/Graphics/SVG/1.1/DTD/svg11.dtd">
<svg fill="currentColor" version="1.1" id="Capa_1" xmlns="http://www.w3.org/2000/svg" xmlns:xlink="http://www.w3.org/1999/xlink" 
	 width="80" height="80" viewBox="0 0 468.613 468.614"
	 xml:space="preserve">
<rect width="100%" height="100%" fill="lightgray"/>
<g>
	<g transform="matrix(1,0,0,0.6,-940.2,28.1)">
		<path d="M 1116.4 304.1 h -3.5 c 10.6 -12.4 17.1 -28.4 17.1 -45.9 C 1130 219.3 1098.3 187.6 1059.4 187.6 C 1020.5 187.6 988.8 219.3 988.8 258.2 c 0 17.5 6.5 33.6 17.1 45.9 h -3.5 c -19.7 0 -35.6 16 -35.6 35.6 v 117.1 c 0 19.6 16 35.6 35.6 35.6 h 1.4 v 128.1 c 0 20.3 10.7 35.6 24.9 35.6 h 61.5 c 14.2 0 24.9 -15.3 24.9 -35.6 V 492.5 h 1.4 c 19.6 0 35.6 -16 35.6 -35.6 v -117.1 C 1152.1 320.1 1136.1 304.1 1116.4 304.1 z"/>
	</g>
</g>
<g transform="matrix(0.9,0,0,0.8,-764.9,-4.3)">
	<path transform="matrix(1,0,0,0.7,1.1,54.4)" d="M 1307.1 295.9 h -3.5 c 10.6 -12.4 17.1 -28.4 17.1 -45.9 C 1320.7 211.1 1289.1 179.4 1250.1 179.4 c -38.9 0 -70.6 31.7 -70.6 70.6 c 0 17.5 6.5 33.6 17.1 45.9 h -3.5 c -19.7 0 -35.6 16 -35.6 35.6 v 117.1 c 0 19.6 16 35.6 35.6 35.6 h 1.4 v 128.1 c 0 20.3 10.7 35.6 24.9 35.6 h 61.5 c 14.2 0 24.9 -15.3 24.9 -35.6 V 484.3 h 1.4 c 19.6 0 35.6 -16 35.6 -35.6 v -117.1 C 1342.8 311.9 1326.8 295.9 1307.1 295.9 z"/>
</g>
<g>
	<text transform="matrix(3.6,0,0,2.7,-87,-17.5)" x="19.9%" y="9.7%" text-anchor="middle" fill="currentColor" font-size="48" font-family="Arial" dy=".3em">X</text>
</g>
</svg>