<?xml version="1.0" encoding="iso-8859-1"?>
<!-- Uploaded to: SVG Repo, www.svgrepo.com, Generator: SVG Repo Mixer Tools -->
<!DOCTYPE svg PUBLIC "-//W3C//DTD SVG 1.1//EN" "http://www.w3.org/Graphics/SVG/1.1/DTD/svg11.dtd">
<svg fill="currentColor" version="1.1" id="Capa_1" xmlns="http://www.w3.org/2000/svg" xmlns:xlink="http://www.w3.org/1999/xlink" 
	 width="200px" height="200px" viewBox="0 0 468.613 468.614"
	 xml:space="preserve">
<g>
	<g transform="matrix(0.3,0,0,0.4,63.9,79.3)">
		<path d="M 129 -20.9 h -3.5 c 10.6 -12.4 17.1 -28.4 17.1 -45.9 C 142.6 -105.7 110.9 -137.4 72 -137.4 C 33.1 -137.4 1.4 -105.7 1.4 -66.8 c 0 17.5 6.5 33.6 17.1 45.9 h -3.5 c -19.7 0 -35.6 16 -35.6 35.6 v 117.1 c 0 19.6 16 35.6 35.6 35.6 h 1.4 v 128.1 c 0 20.3 10.7 35.6 24.9 35.6 h 61.5 c 14.2 0 24.9 -15.3 24.9 -35.6 V 167.5 h 1.4 c 19.6 0 35.6 -16 35.6 -35.6 v -117.1 C 164.7 -4.9 148.7 -20.9 129 -20.9 z"/>
		<path d="M 335.7 -20.9 h -3.5 c 10.6 -12.4 17.1 -28.4 17.1 -45.9 C 349.3 -105.7 317.7 -137.4 278.7 -137.4 c -38.9 0 -70.6 31.7 -70.6 70.6 c 0 17.5 6.5 33.6 17.1 45.9 h -3.5 c -19.7 0 -35.6 16 -35.6 35.6 v 117.1 c 0 19.6 16 35.6 35.6 35.6 h 1.4 v 128.1 c 0 20.3 10.7 35.6 24.9 35.6 h 61.5 c 14.2 0 24.9 -15.3 24.9 -35.6 V 167.5 h 1.4 c 19.6 0 35.6 -16 35.6 -35.6 v -117.1 C 371.4 -4.9 355.4 -20.9 335.7 -20.9 z"/>
	</g>
</g>
<g transform="matrix(1,0,0,1,0.3,1.5)">
<text transform="matrix(0.5,0,0,0.7,92.8,22.3)" x="10%" y="5.8%" text-anchor="middle" fill="currentColor" font-size="100" font-family="Arial" dy=".3em">?</text>
</g>
</svg>