<svg xmlns="http://www.w3.org/2000/svg" viewBox="0 0 384 512" width="80" height="80">
<!--!Font Awesome Free 6.6.0 by @fontawesome - https://fontawesome.com License - https://fontawesome.com/license/free Copyright 2024 Fonticons, Inc.-->
<circle cx="50%" cy="50%" r="55%" fill="lightgrey"/>
<g>
<path transform="matrix(0.8,0,0,0.7,29.9,65.2)" d="M 10.7 71.3 C 10.7 36 39.4 7.3 74.7 7.3 L 234.7 7.3 l 0 128 c 0 17.7 14.3 32 32 32 l 128 0 l 0 288 c 0 35.3 -28.7 64 -64 64 L 74.7 519.3 c -35.3 0 -64 -28.7 -64 -64 L 10.7 71.3 z m 384 64 l -128 0 L 266.7 7.3 L 394.7 135.3 z"/>
<g transform="matrix(0.8,0,0,0.7,21.3,191.8)">
        <path transform="matrix(9.3,0,0,7.7,-570.7,-1052)" d="M 69.3 165.1 L 79.3 155.1 L 89.3 165.1 L 89.3 175.1 L 69.3 175.1 L 69.3 165.1 Z" stroke="currentColor" stroke-width="2" fill="white"/>
        <path transform="matrix(9.3,0,0,7.7,-570.7,-1116.2)" d="M 76.3 183.4 L 76.3 176.4 L 82.3 176.4 L 82.3 183.4 Z" stroke="currentColor" stroke-width="2" fill="white"/>    
</g>
</g>
</svg>