<svg xmlns="http://www.w3.org/2000/svg" viewBox="0 0 384 512" width="80" height="80">
<!--!Font Awesome Free 6.6.0 by @fontawesome - https://fontawesome.com License - https://fontawesome.com/license/free Copyright 2024 Fonticons, Inc.-->
<rect width="100%" height="100%" fill="lightgrey"/>
<path d="M 0 64 C 0 28.7 28.7 0 64 0 L 224 0 l 0 128 c 0 17.7 14.3 32 32 32 l 128 0 l 0 288 c 0 35.3 -28.7 64 -64 64 L 64 512 c -35.3 0 -64 -28.7 -64 -64 L 0 64 z m 384 64 l -128 0 L 256 0 L 384 128 z"/>
<g id="Informative circle">
    <circle transform="matrix(10.3,0,0,8.4,-324.7,-400.4)" cx="46" cy="92.5" r="10" stroke="white" stroke-width="2" fill="none"/>
    <text transform="matrix(10.3,0,0,8.4,-343.2,-389.5)" x="47.8" y="92.2" text-anchor="middle" fill="white" font-size="12" font-family="Arial" dy=".3em">i</text>
</g>
</svg>
