<?xml version="1.0" encoding="iso-8859-1"?>
<!-- Generator: Adobe Illustrator 18.1.1, SVG Export Plug-In . SVG Version: 6.00 Build 0)  -->
<svg version="1.1" id="Capa_1" xmlns="http://www.w3.org/2000/svg" xmlns:xlink="http://www.w3.org/1999/xlink" x="0px" y="0px"
     viewBox="0 0 1000 1000" style="enable-background: new 0 0 80 80" xml:space="preserve">
    <g id="_x37_7_Essential_Icons_19_">
        <path id="Document" d="M 69.2 22.4 L 47.4 0.6 C 47 0.2 46.5 0 46 0 H 14 c -2.2 0 -4 1.8 -4 4 v 72 c 0 2.2 1.8 4 4 4 h 52 c 2.2 0 4 -1.8 4 -4 V 23.7 C 69.9 23.1 69.6 22.8 69.2 22.4 z M 48 6.8 L 63.2 22 H 48 V 6.8 z M 66 76 H 14 V 4 h 30 v 20 c 0 1.1 0.9 2 2 2 h 20 V 76 z"
            stroke="currentColor" stroke-width="2" />
    </g>
    <g id="forward">
    		<polygon points="40,50 30,45 30,48 20,48 20,52 30,52 30,55" stroke="currentColor" stroke-width="2" fill="none"/>
    </g>
</svg>