<?xml version="1.0" encoding="iso-8859-1"?>
<!-- Generator: Adobe Illustrator 18.1.1, SVG Export Plug-In . SVG Version: 6.00 Build 0)  -->
<svg version="1.1" id="Capa_1" xmlns="http://www.w3.org/2000/svg" xmlns:xlink="http://www.w3.org/1999/xlink" x="0px" y="0px"
     viewBox="0 0 1000 1000" style="enable-background: new 0 0 80 80" xml:space="preserve" width="80" height="80">
    <g>
    <g transform="matrix(13.9,0,0,11.3,-665.4,-539.6)" id="_x37_7_Essential_Icons_19_">
        <path id="Document" d="M 110.4 73.4 L 88.6 51.6 C 88.2 51.2 87.7 51 87.2 51 H 55.2 c -2.2 0 -4 1.8 -4 4 v 72 c 0 2.2 1.8 4 4 4 h 52 c 2.2 0 4 -1.8 4 -4 V 74.7 C 111.1 74.1 110.8 73.8 110.4 73.4 z M 89.2 57.8 L 104.4 73 H 89.2 V 57.8 z M 107.2 127 H 55.2 V 55 h 30 v 20 c 0 1.1 0.9 2 2 2 h 20 V 127 z"
            stroke="currentColor" stroke-width="2" fill="none"/>
    </g>
    <g transform="matrix(13.9,0,0,11.3,-486.7,-674.5)" id="forward">
    		<polygon points="68.4,112.9 58.4,107.9 58.4,110.9 48.4,110.9 48.4,114.9 58.4,114.9 58.4,117.9" stroke="currentColor" stroke-width="2" fill="none"/>
    </g>
    </g>
</svg>