<svg xmlns="http://www.w3.org/2000/svg" viewBox="0 0 384 512" width="80" height="80">
<!--!Font Awesome Free 6.6.0 by @fontawesome - https://fontawesome.com License - https://fontawesome.com/license/free Copyright 2024 Fonticons, Inc.-->
<circle cx="50%" cy="50%" r="55%" fill="lightgrey"/>
<path d="M 0 64 C 0 28.7 28.7 0 64 0 L 224 0 l 0 128 c 0 17.7 14.3 32 32 32 l 128 0 l 0 288 c 0 35.3 -28.7 64 -64 64 L 64 512 c -35.3 0 -64 -28.7 -64 -64 L 0 64 z m 384 64 l -128 0 L 256 0 L 384 128 z"/>
    <g transform="matrix(1,0,0,1,0,-100)" id="forward">
    		<polygon transform="matrix(7.5,0,0,5.1,-331.7,-2150.5)" points="69.2,527.1 59.2,522.1 59.2,525.1 49.2,525.1 49.2,529.1 59.2,529.1 59.2,532.1" stroke="white" stroke-width="2" fill="white"/>
    </g>
</svg>
