<?xml version="1.0" encoding="iso-8859-1"?>
<!-- Generator: Adobe Illustrator 18.1.1, SVG Export Plug-In . SVG Version: 6.00 Build 0)  -->
<svg version="1.1" id="Capa_1" xmlns="http://www.w3.org/2000/svg" xmlns:xlink="http://www.w3.org/1999/xlink" x="0px" y="0px"
     viewBox="0 0 80 80" style="enable-background: new 0 0 80 80" xml:space="preserve">
<g id="_x37_7_Essential_Icons_19_">
    <path id="Document" d="M 69.2 22.4 L 47.4 0.6 C 47 0.2 46.5 0 46 0 H 14 c -2.2 0 -4 1.8 -4 4 v 72 c 0 2.2 1.8 4 4 4 h 52 c 2.2 0 4 -1.8 4 -4 V 23.7 C 69.9 23.1 69.6 22.8 69.2 22.4 z M 48 6.8 L 63.2 22 H 48 V 6.8 z M 66 76 H 14 V 4 h 30 v 20 c 0 1.1 0.9 2 2 2 h 20 V 76 z"
        stroke="white" stroke-width="2" fill="white"/>
</g>
<g id="gear">
    <path transform="matrix(1.2,0,0,1.3,-7.3,-14.4)" d="M 21.7 51.8 L 26.7 51.8 L 28.7 46.8 L 33.7 46.8 L 35.7 51.8 L 40.7 51.8 L 40.7 56.8 L 35.7 56.8 L 33.7 61.8 L 28.7 61.8 L 26.7 56.8 L 21.7 56.8 Z" stroke="white" stroke-width="2" fill="none"/>
    <circle transform="matrix(1.2,0,0,1.3,-7.4,-14.4)" cx="31.8" cy="54.3" r="2" stroke="white" stroke-width="2" fill="none"/>
</g>
</svg>