<?xml version="1.0" encoding="iso-8859-1"?>
<!-- Generator: Adobe Illustrator 18.1.1, SVG Export Plug-In . SVG Version: 6.00 Build 0)  -->
<svg version="1.1" id="Capa_1" xmlns="http://www.w3.org/2000/svg" xmlns:xlink="http://www.w3.org/1999/xlink" x="0px" y="0px"
     viewBox="0 0 1000 1000" style="enable-background:new 0 0 80 80;" xml:space="preserve">
<g id="_x37_7_Essential_Icons_19_">
    <path id="Document" d="M69.2,22.4L47.4,0.6C47,0.2,46.5,0,46,0H14c-2.2,0-4,1.8-4,4v72c0,2.2,1.8,4,4,4h52c2.2,0,4-1.8,4-4V23.7
        C69.9,23.1,69.6,22.8,69.2,22.4z M48,6.8L63.2,22H48V6.8z M66,76H14V4h30v20c0,1.1,0.9,2,2,2h20V76z"
        stroke="black" stroke-width="2" fill="black"/>
</g>
<g id="gear">
    <path transform="matrix(1.2,0,0,1.3,-7.3,-14.4)" d="M 21.7 51.8 L 26.7 51.8 L 28.7 46.8 L 33.7 46.8 L 35.7 51.8 L 40.7 51.8 L 40.7 56.8 L 35.7 56.8 L 33.7 61.8 L 28.7 61.8 L 26.7 56.8 L 21.7 56.8 Z" stroke="black" stroke-width="2" fill="none"/>
    <circle transform="matrix(1.2,0,0,1.3,-7.4,-14.4)" cx="31.8" cy="54.3" r="2" stroke="black" stroke-width="2" fill="none"/>
</g>
</svg>