<?xml version="1.0" encoding="iso-8859-1"?>
<!-- Generator: Adobe Illustrator 18.1.1, SVG Export Plug-In . SVG Version: 6.00 Build 0)  -->
<svg version="1.1" id="Capa_1" xmlns="http://www.w3.org/2000/svg" xmlns:xlink="http://www.w3.org/1999/xlink" x="0px" y="0px"
     viewBox="0 0 1000 1000" style="enable-background: new 0 0 80 80" xml:space="preserve" width="80" height="80">
<g>
<g transform="matrix(14.5,0,0,11.8,-722,-654.9)" id="_x37_7_Essential_Icons_19_">
    <path id="Document" d="M 113 78 L 91.2 56.2 C 90.8 55.8 90.3 55.6 89.8 55.6 H 57.8 c -2.2 0 -4 1.8 -4 4 v 72 c 0 2.2 1.8 4 4 4 h 52 c 2.2 0 4 -1.8 4 -4 V 79.3 C 113.7 78.7 113.4 78.4 113 78 z M 91.8 62.4 L 107 77.6 H 91.8 V 62.4 z M 109.8 131.6 H 57.8 V 59.6 h 30 v 20 c 0 1.1 0.9 2 2 2 h 20 V 131.6 z"
        stroke="black" stroke-width="2" fill="none"/>
</g>
<g transform="matrix(14.5,0,0,11.8,-529.2,-920)" id="gear">
    <path transform="matrix(1.2,0,0,1.3,-7.3,-14.4)" d="M 47.1 111.9 L 52.1 111.9 L 54.1 106.9 L 59.1 106.9 L 61.1 111.9 L 66.1 111.9 L 66.1 116.9 L 61.1 116.9 L 59.1 121.9 L 54.1 121.9 L 52.1 116.9 L 47.1 116.9 Z" stroke="currentColor" stroke-width="2" fill="none"/>
    <circle transform="matrix(1.2,0,0,1.3,-7.4,-14.4)" cx="57.2" cy="114.4" r="2" stroke="currentColor" stroke-width="2" fill="none"/>
</g>
</g>
</svg>