<svg xmlns="http://www.w3.org/2000/svg" viewBox="0 0 384 512" width="80" height="80">
<!--!Font Awesome Free 6.6.0 by @fontawesome - https://fontawesome.com License - https://fontawesome.com/license/free Copyright 2024 Fonticons, Inc.-->
<rect width="100%" height="100%" fill="lightgrey"/>
<path d="M 0 64 C 0 28.7 28.7 0 64 0 L 224 0 l 0 128 c 0 17.7 14.3 32 32 32 l 128 0 l 0 288 c 0 35.3 -28.7 64 -64 64 L 64 512 c -35.3 0 -64 -28.7 -64 -64 L 0 64 z m 384 64 l -128 0 L 256 0 L 384 128 z"/>
<g transform="matrix(1,0,0,1,0,-100)" id="gear">
    <path transform="matrix(10.6,0,0,10.3,-517.5,-900.8)" d="M 52.1 129.2 L 57.1 129.2 L 59.1 124.2 L 64.1 124.2 L 66.1 129.2 L 71.1 129.2 L 71.1 134.2 L 66.1 134.2 L 64.1 139.2 L 59.1 139.2 L 57.1 134.2 L 52.1 134.2 Z" stroke="white" stroke-width="2" fill="none"/>
    <circle transform="matrix(10.6,0,0,10.3,-523.6,-900.8)" cx="62.7" cy="131.7" r="2" stroke="white" stroke-width="2" fill="none"/>
</g>
</svg>